<svg width="192" height="193" viewBox="0 0 192 193" fill="none" xmlns="http://www.w3.org/2000/svg">
<ellipse cx="96" cy="96.5" rx="96" ry="96.5" fill="#1E5E7E"/>
<path d="M68.9986 101C45.4595 163.517 134.112 162.492 120.588 112.274" stroke="white" stroke-width="6"/>
<path d="M160 94.5L104.5 43C81.1667 51.1667 34 68 32 70L89 120.5L160 94.5ZM160 94.5L97.5 82.5M160 94.5V125" stroke="white" stroke-width="6"/>
<path d="M24.1988 63.3321L20.424 52.325L21.7569 51.8679L25.1262 61.6926L30.2428 59.9379L30.6483 61.1203L24.1988 63.3321ZM32.5401 60.4715L29.709 52.2162L30.9774 51.7812L33.8085 60.0365L32.5401 60.4715ZM29.8821 50.6191C29.6349 50.7039 29.3928 50.6928 29.1559 50.5859C28.9226 50.4777 28.7654 50.3053 28.6843 50.0688C28.6032 49.8324 28.6216 49.5998 28.7394 49.3712C28.8608 49.1414 29.0451 48.9841 29.2923 48.8993C29.5396 48.8145 29.7798 48.8262 30.0132 48.9344C30.2501 49.0413 30.4091 49.2131 30.4902 49.4495C30.5713 49.686 30.5511 49.9192 30.4297 50.149C30.3119 50.3776 30.1294 50.5343 29.8821 50.6191ZM36.9768 49.7238L37.3454 50.7987L32.8953 52.3248L32.5266 51.2499L36.9768 49.7238ZM36.6906 59.0481L33.4688 49.6534C33.3066 49.1805 33.2825 48.7482 33.3965 48.3567C33.5105 47.9652 33.7179 47.6298 34.0185 47.3505C34.3192 47.0712 34.6666 46.864 35.0607 46.7288C35.3724 46.6219 35.6354 46.5598 35.8497 46.5424C36.064 46.5249 36.2269 46.5211 36.3383 46.531L36.3489 47.7527C36.277 47.7533 36.1782 47.7572 36.0525 47.7642C35.9304 47.7701 35.7779 47.8043 35.5952 47.867C35.176 48.0108 34.9095 48.2203 34.7956 48.4956C34.6854 48.7697 34.7003 49.1109 34.8404 49.5194L37.959 58.6132L36.6906 59.0481ZM44.7657 56.4711C43.9703 56.7439 43.224 56.8036 42.5267 56.6503C41.8317 56.4922 41.2197 56.1495 40.6904 55.6222C40.1636 55.0901 39.7552 54.4012 39.4652 53.5556C39.1752 52.71 39.0737 51.9119 39.1606 51.1613C39.2499 50.4059 39.5102 49.752 39.9415 49.1996C40.3751 48.6425 40.9646 48.2361 41.7098 47.9805C42.1398 47.8331 42.589 47.7591 43.0573 47.7587C43.5257 47.7582 43.9872 47.8603 44.4417 48.0648C44.8951 48.2657 45.3142 48.5945 45.699 49.0512C46.0839 49.5078 46.4084 50.1213 46.6726 50.8917L46.8569 51.4291L40.4934 53.6114L40.1174 52.515L45.191 50.7751C45.0313 50.3093 44.7956 49.9256 44.4839 49.624C44.1758 49.3212 43.8154 49.1225 43.4025 49.0278C42.9932 48.9319 42.5592 48.9626 42.1006 49.1199C41.5954 49.2932 41.2013 49.5685 40.9182 49.9459C40.6375 50.3184 40.4669 50.7374 40.4062 51.2027C40.3455 51.668 40.3932 52.1281 40.5492 52.5832L40.7999 53.3141C41.0137 53.9376 41.3025 54.4292 41.6661 54.789C42.0321 55.144 42.4473 55.368 42.9117 55.4611C43.3749 55.5505 43.8626 55.5074 44.375 55.3317C44.7082 55.2174 44.9932 55.0676 45.23 54.8823C45.4691 54.6921 45.6547 54.4683 45.7866 54.2109C45.9173 53.9498 45.9873 53.6575 45.9965 53.334L47.3398 53.2577C47.3534 53.7176 47.2619 54.1574 47.0655 54.5772C46.8679 54.9933 46.5752 55.366 46.1875 55.6952C45.7986 56.0207 45.3247 56.2794 44.7657 56.4711ZM56.4886 43.8013L55.1557 44.2584C54.9454 43.902 54.6919 43.6125 54.3953 43.3899C54.1023 43.166 53.7823 43.0035 53.4352 42.9023C53.0905 42.7962 52.7325 42.7508 52.3613 42.766C51.9901 42.7811 51.6218 42.8514 51.2563 42.9767C50.5899 43.2053 50.0439 43.5807 49.6183 44.1031C49.1964 44.6242 48.9384 45.2673 48.8444 46.0323C48.7539 46.7962 48.8721 47.6546 49.199 48.6077C49.5258 49.5608 49.9593 50.3111 50.4995 50.8587C51.0433 51.405 51.6416 51.7545 52.2946 51.9069C52.9511 52.0582 53.6126 52.0196 54.2791 51.791C54.6445 51.6657 54.9785 51.4951 55.2809 51.2793C55.5833 51.0634 55.8386 50.8097 56.0469 50.518C56.2576 50.2215 56.4099 49.895 56.5039 49.5384C56.6002 49.177 56.6226 48.7929 56.5712 48.3861L57.9041 47.9289C57.9967 48.5259 57.9866 49.092 57.8738 49.6272C57.761 50.1624 57.561 50.6535 57.2738 51.1004C56.9853 51.5437 56.6233 51.9301 56.1877 52.2597C55.7557 52.588 55.2621 52.8474 54.7067 53.0379C53.7679 53.3598 52.8544 53.4168 51.9662 53.2089C51.078 53.0009 50.2793 52.546 49.5701 51.8442C48.8609 51.1424 48.3072 50.211 47.9091 49.0501C47.511 47.8892 47.3765 46.814 47.5058 45.8247C47.635 44.8353 47.9864 43.986 48.5601 43.2767C49.1337 42.5674 49.8899 42.0518 50.8287 41.7298C51.3841 41.5394 51.933 41.4412 52.4756 41.4353C53.0218 41.4282 53.5454 41.513 54.0464 41.6895C54.5463 41.8625 55.0049 42.1257 55.4224 42.479C55.8387 42.8288 56.1941 43.2696 56.4886 43.8013ZM64.4783 49.7109C63.733 49.9665 63.0183 50.0133 62.3341 49.8515C61.6535 49.6885 61.0462 49.3422 60.5122 48.8125C59.9817 48.2816 59.5703 47.5898 59.2778 46.737C58.9829 45.8771 58.8813 45.073 58.9731 44.3248C59.0685 43.5753 59.3348 42.9273 59.7721 42.3809C60.213 41.8333 60.8061 41.4317 61.5514 41.1761C62.2966 40.9205 63.0096 40.8742 63.6902 41.0372C64.3744 41.1991 64.9823 41.5472 65.514 42.0816C66.0492 42.6149 66.4643 43.3115 66.7592 44.1714C67.0516 45.0242 67.1496 45.8235 67.053 46.5694C66.96 47.3141 66.693 47.9602 66.2521 48.5079C65.8148 49.0543 65.2236 49.4553 64.4783 49.7109ZM64.0875 48.5715C64.6537 48.3773 65.0697 48.0725 65.3356 47.6569C65.6016 47.2413 65.7412 46.767 65.7546 46.2338C65.768 45.7006 65.68 45.1582 65.4908 44.6064C65.3016 44.0546 65.0375 43.5705 64.6985 43.1542C64.3595 42.7379 63.9569 42.4454 63.4906 42.277C63.0244 42.1085 62.5082 42.1213 61.9421 42.3155C61.376 42.5096 60.9606 42.8163 60.6959 43.2354C60.4312 43.6546 60.2927 44.1325 60.2806 44.6693C60.2684 45.206 60.357 45.7503 60.5462 46.3021C60.7354 46.8539 60.9989 47.3361 61.3367 47.7489C61.6745 48.1616 62.0759 48.4504 62.5409 48.6153C63.0059 48.7802 63.5214 48.7656 64.0875 48.5715ZM74.1413 42.4327L72.4677 37.5526L73.7361 37.1176L76.5671 45.3729L75.2987 45.8079L74.8195 44.4105L74.7335 44.44C74.6838 44.9256 74.5051 45.3853 74.1974 45.8192C73.8885 46.2495 73.4223 46.5715 72.7988 46.7853C72.2829 46.9623 71.7855 47.0067 71.3068 46.9186C70.8269 46.8269 70.3936 46.5911 70.007 46.2111C69.6192 45.8275 69.3049 45.2846 69.064 44.5823L67.2651 39.3367L68.5335 38.9018L70.3029 44.0613C70.5094 44.6633 70.8424 45.0857 71.3021 45.3285C71.7654 45.57 72.2603 45.6005 72.787 45.4199C73.1024 45.3117 73.3954 45.1211 73.6662 44.8481C73.9405 44.5738 74.1316 44.232 74.2395 43.8226C74.3509 43.4119 74.3182 42.9486 74.1413 42.4327ZM78.8903 44.5762L76.0592 36.3209L77.2846 35.9007L77.7122 37.1475L77.7982 37.1181C77.8086 36.658 77.9673 36.2332 78.2742 35.8436C78.5811 35.454 78.9817 35.1745 79.4762 35.0049C79.5694 34.973 79.6864 34.9348 79.8274 34.8905C79.9684 34.8461 80.0759 34.8153 80.15 34.7979L80.5924 36.0878C80.5457 36.0918 80.4416 36.1094 80.2802 36.1408C80.1211 36.1673 79.9574 36.2094 79.7889 36.2672C79.3876 36.4048 79.0582 36.6119 78.8007 36.8884C78.5455 37.1601 78.3769 37.4742 78.2949 37.8307C78.2153 38.1824 78.2394 38.5445 78.3672 38.9172L80.1587 44.1412L78.8903 44.5762ZM88.172 34.2332L87.1432 34.9465C87.0064 34.7811 86.8374 34.6329 86.6362 34.5016C86.4374 34.3656 86.1995 34.279 85.9224 34.2418C85.6454 34.2047 85.3224 34.2494 84.9533 34.376C84.4481 34.5492 84.067 34.8101 83.8101 35.1585C83.5555 35.5021 83.489 35.8512 83.6107 36.2059C83.7188 36.5212 83.9189 36.7309 84.2109 36.835C84.5028 36.9391 84.9134 36.9685 85.4424 36.9232L86.7711 36.804C87.5706 36.73 88.2146 36.8155 88.7031 37.0604C89.1903 37.3018 89.5328 37.7109 89.7306 38.2878C89.8928 38.7608 89.9017 39.2302 89.7571 39.6963C89.6162 40.1611 89.3407 40.5839 88.9308 40.9648C88.5208 41.3456 87.9951 41.646 87.3537 41.866C86.5117 42.1547 85.7522 42.211 85.075 42.0348C84.3979 41.8585 83.8655 41.4444 83.4777 40.7925L84.5784 40.0787C84.8454 40.4837 85.1765 40.7426 85.5716 40.8554C85.9702 40.9669 86.4293 40.9336 86.9489 40.7554C87.5401 40.5527 87.9664 40.2663 88.228 39.8963C88.4919 39.5215 88.563 39.1567 88.4414 38.802C88.3431 38.5154 88.1604 38.3097 87.8934 38.185C87.6252 38.0568 87.2666 38.0156 86.8178 38.0613L85.3314 38.2107C84.5139 38.2908 83.8633 38.2036 83.3796 37.949C82.8982 37.6897 82.5598 37.2751 82.3644 36.7054C82.2047 36.2396 82.1942 35.7827 82.3328 35.3347C82.4751 34.8855 82.7387 34.4807 83.1237 34.1204C83.5123 33.7589 83.9969 33.4786 84.5773 33.2796C85.3942 32.9994 86.097 32.9586 86.6857 33.1572C87.278 33.3545 87.7734 33.7132 88.172 34.2332ZM95.949 38.9183C95.1536 39.1911 94.4072 39.2508 93.7099 39.0975C93.015 38.9394 92.4029 38.5967 91.8737 38.0694C91.3468 37.5373 90.9384 36.8485 90.6484 36.0029C90.3584 35.1573 90.2569 34.3592 90.3439 33.6085C90.4332 32.8531 90.6935 32.1992 91.1248 31.6469C91.5584 31.0897 92.1478 30.6833 92.8931 30.4278C93.3231 30.2803 93.7722 30.2064 94.2406 30.2059C94.709 30.2055 95.1704 30.3075 95.625 30.512C96.0783 30.7129 96.4974 31.0417 96.8823 31.4984C97.2671 31.9551 97.5917 32.5686 97.8558 33.3389L98.0402 33.8764L91.6767 36.0587L91.3007 34.9623L96.3743 33.2223C96.2145 32.7565 95.9788 32.3729 95.6672 32.0713C95.3591 31.7685 94.9986 31.5698 94.5857 31.4751C94.1764 31.3792 93.7425 31.4099 93.2838 31.5672C92.7786 31.7404 92.3845 32.0157 92.1015 32.3931C91.8208 32.7657 91.6501 33.1846 91.5894 33.6499C91.5288 34.1152 91.5764 34.5754 91.7325 35.0304L91.9832 35.7614C92.197 36.3848 92.4857 36.8764 92.8494 37.2363C93.2154 37.5913 93.6306 37.8153 94.095 37.9083C94.5581 37.9978 95.0459 37.9546 95.5583 37.7789C95.8915 37.6646 96.1765 37.5148 96.4133 37.3295C96.6524 37.1394 96.8379 36.9156 96.9699 36.6581C97.1006 36.397 97.1705 36.1048 97.1797 35.7813L98.5231 35.705C98.5366 36.1649 98.4452 36.6047 98.2488 37.0244C98.0511 37.4406 97.7585 37.8133 97.3708 38.1424C96.9819 38.468 96.508 38.7266 95.949 38.9183Z" fill="white"/>
</svg>
